<?xml version="1.0" standalone="no"?>
<!DOCTYPE svg PUBLIC "-//W3C//DTD SVG 20010904//EN"
 "http://www.w3.org/TR/2001/REC-SVG-20010904/DTD/svg10.dtd">
<svg version="1.0" xmlns="http://www.w3.org/2000/svg"
 width="382.000000pt" height="566.000000pt" viewBox="0 0 382.000000 566.000000"
 preserveAspectRatio="xMidYMid meet">
<metadata>
Created by potrace 1.16, written by Peter Selinger 2001-2019
</metadata>
<g transform="translate(0.000000,566.000000) scale(0.100000,-0.100000)"
fill="#000000" stroke="none">
<path d="M0 5076 c0 -458 3 -586 13 -590 9 -5 9 -7 -1 -12 -9 -4 -12 -144 -12
-650 0 -396 4 -644 9 -644 6 0 13 5 16 10 9 15 25 12 25 -6 0 -8 -4 -12 -10
-9 -5 3 -7 0 -5 -7 3 -7 17 -18 30 -25 22 -10 25 -9 25 7 0 11 4 22 10 25 5 3
10 2 10 -2 0 -5 17 -7 38 -5 33 3 41 9 61 47 29 55 74 98 97 93 16 -3 14 -8
-15 -38 -41 -43 -101 -163 -101 -205 -1 -16 -7 -41 -15 -55 -8 -14 -14 -38
-14 -55 1 -28 1 -28 8 -6 4 14 13 27 20 29 8 3 11 0 7 -6 -3 -6 -8 -25 -10
-43 -2 -18 -12 -38 -21 -45 -19 -14 -27 -81 -15 -125 9 -31 -3 -61 -14 -34 -3
9 -6 35 -6 58 l0 41 -30 -29 c-31 -30 -31 -33 13 -85 21 -24 31 -30 36 -21 6
10 10 9 14 -2 4 -10 -4 -22 -19 -32 -24 -15 -25 -15 -59 22 -57 61 -57 80 1
130 37 33 48 49 46 68 -2 13 1 40 6 59 6 21 6 36 1 38 -5 2 -11 13 -14 26 -3
17 1 22 16 22 14 0 19 7 19 24 0 32 -2 33 -88 41 l-72 8 0 -52 c0 -49 14 -73
17 -30 2 29 4 29 45 23 33 -6 34 -8 24 -30 -9 -19 -19 -24 -51 -25 l-40 -2 35
-7 35 -7 -33 -2 -32 -1 0 -210 c1 -156 4 -210 13 -210 34 -1 38 -17 12 -61
l-25 -44 0 -1217 0 -1218 1149 0 1149 0 -2 31 c-2 42 25 60 53 35 15 -14 18
-23 11 -42 l-10 -24 735 0 735 0 0 292 c0 281 -1 291 -18 275 -15 -14 -21 -15
-36 -4 -29 21 -16 52 22 52 l32 0 0 1552 0 1553 -25 -12 c-14 -6 -25 -15 -25
-19 0 -4 -10 -4 -22 -1 -21 5 -19 7 11 15 27 6 31 11 20 18 -10 7 -7 8 11 7
22 -3 25 1 26 34 l2 37 -39 -20 c-21 -10 -39 -24 -39 -30 0 -6 -4 -8 -9 -4 -5
3 -12 1 -16 -5 -3 -5 3 -10 14 -10 11 0 23 -5 27 -12 5 -7 2 -10 -7 -6 -20 7
-168 46 -204 54 -26 5 -27 7 -10 14 17 6 17 7 -8 14 -28 7 -38 38 -15 52 8 5
9 2 5 -9 -7 -18 28 -44 37 -28 3 5 -1 12 -10 15 -9 4 -14 13 -10 22 3 8 2 12
-4 9 -6 -3 -10 3 -10 14 0 11 -11 44 -24 73 -13 29 -30 67 -36 83 -11 27 -13
28 -19 11 -5 -14 -10 -16 -15 -8 -4 7 -5 16 -2 21 4 5 -6 24 -21 42 -22 26
-24 31 -9 26 16 -7 17 -5 5 9 -20 24 -57 36 -124 40 -41 3 -55 1 -45 -6 12 -8
11 -10 -6 -10 -42 0 -152 -59 -112 -60 7 0 5 -5 -6 -11 -15 -9 -16 -13 -5 -20
11 -7 11 -9 1 -9 -7 0 -11 -4 -8 -9 3 -5 15 -7 25 -4 17 4 27 21 45 76 3 10
15 17 32 17 l26 0 -30 -31 c-17 -17 -33 -40 -35 -51 -6 -20 -5 -20 16 1 17 15
35 20 72 19 28 0 44 -3 38 -5 -8 -3 -13 -22 -13 -48 0 -28 -4 -43 -12 -42 -7
0 -33 -1 -57 -1 -35 -2 -41 -5 -32 -15 6 -8 9 -16 6 -19 -3 -3 6 -10 19 -16
19 -9 27 -7 44 8 25 24 32 17 32 -31 0 -30 -3 -37 -15 -33 -10 4 -15 0 -15
-13 0 -10 -5 -24 -11 -30 -9 -9 -6 -11 12 -7 l24 5 -25 -15 -25 -15 29 -1 c24
0 27 -2 16 -15 -9 -10 -9 -15 -1 -15 6 0 11 -7 11 -15 0 -22 -47 -1 -82 36
-23 24 -27 33 -18 49 13 24 13 41 0 18 -9 -15 -13 -15 -37 8 -43 39 -55 30
-29 -22 11 -22 13 -44 7 -86 -4 -31 -4 -55 1 -52 8 5 12 -16 8 -49 -1 -16 2
-17 19 -7 12 6 27 8 33 4 6 -4 8 -3 4 4 -3 6 -1 14 5 18 14 8 31 -16 23 -36
-4 -12 -3 -13 7 -2 24 23 32 13 26 -33 -8 -52 2 -57 33 -17 17 21 19 28 7 30
-8 2 -20 14 -27 27 -7 14 -18 21 -27 18 -11 -4 -13 4 -11 36 2 22 6 41 10 41
15 0 58 -68 53 -83 -4 -9 3 -21 16 -31 l23 -16 -36 -37 c-33 -36 -64 -100 -53
-111 4 -4 20 29 38 80 3 9 14 21 25 27 17 9 18 7 14 -14 -2 -14 -9 -25 -14
-25 -6 0 -8 -11 -6 -25 3 -14 0 -29 -6 -33 -6 -4 -18 -16 -26 -27 -14 -19 -14
-19 3 -6 9 8 21 11 25 7 8 -8 -27 -38 -37 -31 -4 2 -18 -17 -31 -42 -37 -70
-38 -43 -4 92 5 19 5 19 -10 1 -8 -10 -18 -38 -22 -62 -8 -55 -24 -67 -24 -19
0 21 11 55 26 81 14 24 24 49 21 56 -2 7 -11 -3 -20 -22 -9 -21 -16 -28 -16
-17 -1 10 6 32 15 48 15 31 14 46 -4 35 -15 -9 -32 -89 -32 -148 0 -67 -9
-105 -21 -86 -5 7 -9 23 -9 36 0 12 -4 22 -10 22 -20 0 -28 36 -19 93 9 56 9
59 -17 79 -26 21 -26 22 -20 117 4 53 7 103 8 111 2 8 -1 34 -6 58 -6 33 -12
42 -23 38 -12 -5 -14 -1 -11 19 3 13 2 26 -2 27 -5 2 -10 14 -12 28 -2 21 1
25 20 23 20 -3 22 1 22 47 0 100 93 206 185 211 22 1 50 8 62 16 17 10 21 10
18 1 -3 -8 13 -21 40 -34 43 -20 45 -20 45 -2 0 10 7 18 15 18 8 0 15 -7 15
-16 0 -8 4 -13 8 -10 5 3 9 -8 9 -24 0 -17 2 -33 6 -36 3 -4 28 17 55 45 l49
51 1 -34 c1 -27 -5 -38 -26 -52 -15 -10 -31 -17 -37 -15 -5 1 -7 -1 -2 -5 4
-4 -1 -16 -10 -26 -17 -18 -16 -22 9 -71 14 -29 29 -61 32 -71 6 -19 7 -19 21
0 8 10 15 15 15 9 0 -5 7 1 16 13 8 12 19 20 24 17 5 -3 14 4 20 15 6 11 15
18 19 15 5 -2 16 7 25 20 9 14 21 23 25 20 5 -2 17 7 26 21 11 18 20 23 24 15
5 -7 12 -2 19 15 8 16 18 24 27 20 8 -3 16 3 20 15 4 10 11 19 16 19 5 0 9 49
9 110 0 61 -3 110 -8 110 -4 0 -53 -40 -110 -90 -98 -86 -131 -107 -119 -76 4
10 1 13 -9 9 -10 -4 -12 0 -8 11 3 9 10 16 14 16 5 0 28 19 52 43 25 23 71 66
104 96 32 30 64 64 71 75 14 25 18 250 4 242 -20 -13 -23 79 -3 93 11 8 14
211 3 211 -5 0 -12 -7 -15 -16 -3 -8 -2 -12 4 -9 17 10 11 -12 -10 -36 -11
-14 -19 -18 -20 -11 0 7 -4 11 -8 8 -5 -3 -7 5 -6 17 1 12 3 29 3 37 1 13 2
13 11 0 6 -9 10 -10 10 -3 0 6 9 15 21 18 20 7 19 7 -5 32 -29 28 -34 63 -11
63 18 0 20 16 3 24 -10 5 -10 7 -1 12 10 4 10 10 0 25 -16 26 -22 24 -41 -16
-10 -21 -24 -35 -34 -34 -14 1 -14 2 2 6 13 4 15 7 7 13 -9 5 5 25 43 66 l56
58 0 188 0 188 -1206 0 -1207 0 7 -126 c5 -106 9 -128 27 -147 15 -17 19 -30
14 -57 -5 -28 -1 -40 16 -58 11 -13 27 -21 35 -18 8 3 14 1 14 -4 0 -13 68
-33 91 -27 16 4 18 3 9 -8 -7 -8 -9 -18 -6 -23 3 -4 -9 -16 -25 -26 -23 -14
-29 -24 -27 -44 2 -15 -4 -32 -12 -39 -13 -10 -12 -14 5 -27 11 -8 32 -18 46
-21 15 -3 36 -15 48 -26 18 -17 29 -19 86 -13 50 5 65 10 61 20 -3 8 -2 14 2
15 4 0 18 2 32 4 14 2 41 5 61 7 22 2 35 8 32 14 -5 14 10 20 69 29 l45 7 23
-46 c23 -50 49 -70 74 -60 9 4 22 1 29 -4 17 -14 109 -1 115 16 2 7 -5 12 -17
12 -11 0 -27 10 -35 22 -9 13 -33 27 -54 33 -27 8 -37 16 -37 30 0 30 80 44
125 21 39 -19 91 -21 108 -4 9 9 12 8 12 -5 0 -9 11 -19 25 -23 28 -7 33 -22
10 -30 -8 -4 -15 -17 -15 -30 0 -13 -4 -24 -9 -24 -5 0 -22 -5 -38 -12 -15 -6
-32 -10 -36 -9 -5 1 -5 -4 -1 -10 4 -8 -1 -9 -17 -5 -13 3 -18 3 -11 0 6 -3
12 -15 12 -26 0 -17 -5 -20 -34 -16 -25 3 -32 0 -29 -9 3 -9 0 -11 -10 -7 -18
6 -68 -19 -107 -53 -23 -21 -23 -23 -5 -23 11 0 -7 -13 -40 -29 -61 -29 -81
-30 -71 -5 3 9 -1 14 -14 14 -12 0 -20 -9 -25 -29 -3 -16 -12 -32 -19 -34 -8
-3 -12 -15 -9 -29 4 -18 -6 -34 -39 -67 l-43 -42 43 22 c36 18 47 20 66 10 13
-7 31 -11 42 -9 24 4 44 41 37 69 -5 19 -3 21 13 14 28 -14 114 -13 154 1 66
23 125 60 122 77 -1 9 8 21 20 28 13 7 26 17 30 22 3 6 14 12 24 13 29 4 47
55 24 69 -14 9 -2 31 26 43 13 7 24 20 24 31 0 22 16 36 24 22 3 -5 24 -7 46
-5 32 3 43 -1 52 -16 7 -11 23 -20 35 -20 14 0 23 -6 23 -15 0 -12 5 -13 26
-4 31 11 34 9 37 -19 1 -17 4 -19 20 -10 14 7 17 7 13 -1 -4 -7 1 -11 13 -11
12 0 21 4 21 8 0 16 -114 112 -131 112 -18 0 -35 33 -25 49 3 5 -1 11 -9 15
-8 3 -15 1 -15 -5 0 -6 -8 -5 -22 2 -19 10 -19 12 -5 21 18 10 83 -19 106 -46
8 -9 19 -16 27 -16 7 0 19 -6 26 -12 7 -7 26 -20 41 -28 18 -9 24 -16 16 -19
-8 -2 2 -9 20 -16 26 -8 38 -20 46 -46 8 -21 14 -28 17 -19 4 13 7 13 21 1 10
-7 17 -17 17 -22 0 -14 -37 -10 -53 5 -13 13 -92 15 -105 2 -3 -3 -6 -18 -7
-33 -1 -16 -5 -39 -9 -53 -6 -22 -5 -21 10 5 18 32 32 19 15 -13 -8 -15 -6
-28 5 -52 9 -17 14 -34 11 -37 -8 -8 -28 7 -22 17 3 5 1 11 -5 15 -7 4 -10
-41 -10 -132 0 -95 -4 -143 -12 -151 -19 -19 -31 -14 -24 12 3 13 3 50 0 83
l-6 58 -77 -3 c-42 -3 -78 -6 -80 -8 -8 -7 -11 -335 -3 -330 5 3 8 -5 7 -17
-1 -19 -8 -22 -42 -22 l-41 -1 2 57 c1 34 -2 55 -8 52 -5 -4 -7 3 -4 15 5 19
2 22 -26 22 -51 0 -78 -19 -126 -87 -35 -50 -49 -62 -65 -58 -11 2 -25 5 -31
5 -8 0 -11 23 -10 68 1 65 0 67 -24 69 -48 5 -63 -19 -66 -103 -3 -76 -3 -78
-53 -138 -28 -34 -56 -68 -63 -78 -10 -13 -22 -15 -58 -9 -69 11 -102 8 -114
-11 -13 -22 13 -59 75 -107 24 -18 45 -36 47 -40 1 -4 -17 -11 -40 -17 -30 -6
-46 -16 -55 -34 -7 -14 -13 -21 -13 -16 0 5 -9 1 -20 -9 -14 -13 -18 -26 -15
-48 5 -24 3 -28 -10 -23 -10 3 -25 -4 -40 -20 -13 -14 -43 -32 -67 -39 -24 -7
-52 -17 -62 -21 -15 -6 -17 -4 -11 6 6 10 3 12 -11 8 -14 -4 -19 1 -20 19 -2
29 38 42 70 23 17 -10 19 -10 9 1 -7 7 -13 17 -13 21 0 11 48 10 71 -2 11 -6
19 -7 19 -1 0 41 -172 22 -210 -23 -7 -9 -20 -16 -29 -16 -9 0 -28 -8 -41 -17
-22 -15 -23 -15 -12 -1 9 11 10 18 2 23 -5 3 -10 1 -10 -6 0 -7 -3 -9 -7 -6
-3 4 -15 -5 -25 -20 -10 -16 -18 -25 -18 -20 0 4 -16 0 -37 -8 -20 -8 -38 -14
-39 -12 -2 2 1 21 7 42 16 56 15 170 0 189 -11 13 -11 16 0 16 10 1 9 4 -3 14
-10 7 -18 16 -18 19 0 3 8 8 18 10 14 4 15 5 1 6 -20 1 -32 72 -15 83 7 5 5 8
-5 8 -9 0 -22 6 -28 14 -9 11 -8 15 5 20 10 4 23 -3 36 -19 19 -24 21 -25 33
-8 11 15 11 21 -1 34 -18 20 -18 29 1 29 8 0 17 -11 21 -24 3 -14 13 -28 22
-31 15 -6 15 -8 -3 -16 -15 -7 -12 -8 13 -4 l34 5 -2 -58 c-1 -31 -2 -97 -1
-145 l1 -88 28 19 c15 10 47 24 72 31 47 13 171 12 163 -1 -2 -5 4 -8 13 -8
15 0 16 9 10 92 -3 50 -6 103 -6 118 0 19 -6 29 -20 33 -11 3 -20 12 -20 20 0
9 -8 18 -17 20 -11 3 -7 5 10 6 25 1 41 21 16 21 -7 0 -9 43 -6 136 4 112 2
134 -9 130 -8 -3 -14 1 -14 10 0 8 -13 27 -29 43 -25 24 -31 41 -39 107 -6 44
-18 131 -28 194 -25 169 -27 162 26 177 86 25 93 70 8 60 -64 -7 -103 -17
-106 -28 -2 -5 -15 -6 -28 -3 -30 8 -32 -4 -1 -16 15 -6 17 -9 6 -9 -15 -1
-17 -22 -18 -168 -3 -258 -10 -343 -31 -343 -5 0 -7 6 -5 13 7 17 -9 70 -22
74 -6 2 -9 -7 -6 -24 4 -25 3 -26 -10 -11 -12 15 -15 14 -26 -17 -7 -20 -17
-32 -24 -29 -21 8 -11 -73 13 -111 24 -39 49 -45 57 -15 10 36 18 21 20 -36 1
-31 5 -60 10 -63 4 -3 9 -14 11 -23 2 -10 -18 3 -47 32 -33 33 -64 78 -91 134
-29 62 -52 95 -85 123 -54 45 -60 66 -8 26 l37 -28 -7 25 c-4 14 -7 32 -7 40
0 10 -11 15 -30 16 -17 1 -30 -3 -30 -8 0 -4 -8 -4 -17 1 -10 5 -37 14 -60 19
-35 8 -43 7 -43 -4 0 -17 -5 -17 -31 -4 -10 6 -19 17 -19 25 0 14 -10 18 -78
29 l-32 6 31 -62 c25 -50 32 -76 34 -137 2 -42 6 -95 10 -118 9 -51 1 -55 -19
-10 -8 17 -21 43 -29 57 -8 14 -20 36 -26 50 -7 14 -9 17 -6 7 3 -10 8 -44 11
-75 3 -32 17 -92 31 -135 20 -64 27 -76 39 -66 8 7 11 21 8 35 -7 26 5 31 24
12 8 -8 10 -3 5 25 -3 23 -1 43 7 52 12 15 4 20 -22 16 -13 -2 -9 44 5 58 10
11 10 13 -1 7 -6 -4 -12 -3 -12 2 0 10 79 22 93 15 4 -2 7 -46 7 -96 0 -51 4
-87 8 -82 4 6 14 10 22 10 11 0 14 8 12 30 -4 26 -2 28 12 16 14 -12 16 -9 17
25 1 24 3 30 6 16 3 -13 9 -19 15 -16 8 5 9 1 3 -12 -4 -10 -10 -32 -13 -48
-4 -26 -2 -28 17 -23 14 3 21 0 21 -8 0 -7 6 -15 13 -18 6 -2 9 -7 6 -11 -4
-4 -26 3 -49 15 -40 21 -43 21 -71 5 -16 -9 -32 -15 -37 -13 -4 3 -18 0 -32
-6 -14 -5 -32 -11 -40 -12 -8 -1 -22 -6 -31 -9 -14 -6 -21 6 -39 66 -12 40
-26 77 -31 82 -4 5 -5 22 -2 37 5 24 -1 35 -34 67 -21 20 -45 51 -53 67 -25
54 -61 85 -97 85 -24 0 -31 4 -27 14 10 25 -15 56 -43 56 -33 0 -24 10 17 19
28 5 30 8 17 25 -11 15 -27 20 -68 20 -30 1 -63 7 -74 14 -19 11 -18 12 6 6
l26 -5 8 373 c4 205 8 384 8 398 0 20 4 15 22 -22 12 -26 25 -45 28 -41 4 3 7
-3 7 -14 0 -24 28 -83 40 -83 5 0 8 -8 8 -17 0 -10 6 -33 14 -51 l15 -34 1 73
c1 39 4 74 6 77 3 2 0 16 -5 30 -7 18 -6 28 2 36 9 8 10 8 5 -1 -7 -12 19 -73
34 -83 11 -7 19 -214 20 -457 0 -233 -14 -207 118 -218 l73 -6 0 273 c0 150 0
290 0 311 0 22 3 35 9 32 6 -3 10 -13 10 -21 0 -8 5 -14 11 -14 5 0 7 5 3 12
-4 6 -3 8 3 5 6 -4 13 -16 16 -27 5 -18 3 -19 -11 -8 -14 11 -15 10 -8 -7 14
-36 16 -175 3 -175 -7 0 -6 -4 3 -10 13 -8 16 5 20 94 4 80 9 108 23 123 17
19 16 21 -9 48 -18 20 -24 34 -19 49 4 11 8 31 9 43 2 34 13 17 21 -32 5 -39
9 -45 25 -40 12 4 20 0 23 -12 4 -17 5 -17 6 0 1 16 4 16 42 -3 40 -21 54 -20
54 3 0 5 6 12 14 15 9 3 12 0 8 -11 -4 -11 0 -13 15 -9 11 2 15 8 10 11 -6 3
-13 20 -17 36 l-7 30 19 -22 c36 -43 120 -9 111 45 -1 9 2 24 7 32 23 36 35
93 41 198 l7 112 -696 0 -697 0 0 -584z m2861 146 c29 -26 66 -53 81 -59 25
-11 27 -10 42 28 9 22 21 37 26 34 6 -3 10 1 10 9 0 10 8 16 23 15 16 -1 18
-2 5 -6 -10 -2 -18 -9 -18 -14 0 -6 4 -8 9 -5 5 3 11 -4 14 -15 4 -15 2 -19
-9 -15 -12 5 -14 1 -9 -17 15 -52 16 -57 11 -57 -3 0 -11 20 -17 45 -6 25 -15
45 -20 45 -4 0 -3 -14 3 -31 8 -22 7 -34 -1 -42 -16 -16 -14 -30 4 -23 10 3
17 -3 21 -18 3 -13 15 -28 27 -35 12 -6 35 -21 50 -33 24 -19 29 -20 37 -8 8
12 10 12 10 -4 0 -12 5 -16 15 -12 11 4 15 -1 15 -18 0 -14 -6 -26 -12 -29 -7
-2 -9 -8 -5 -13 4 -5 12 -2 16 5 7 10 13 10 29 2 29 -15 27 -16 61 39 28 46
65 90 75 90 10 0 -18 -66 -36 -84 -10 -11 -16 -26 -13 -34 2 -7 0 -10 -5 -7
-11 7 -37 -42 -27 -51 4 -4 13 -2 20 5 8 6 28 9 48 5 27 -4 31 -3 19 6 -12 9
-12 13 -2 17 10 4 10 8 1 19 -25 30 30 52 68 28 14 -9 24 -10 28 -4 4 6 11 8
16 4 5 -3 7 -9 4 -14 -3 -4 6 -7 20 -6 14 2 30 -3 36 -10 8 -10 8 -14 0 -14
-6 0 -11 4 -11 9 0 4 -11 6 -25 3 -14 -2 -23 -7 -21 -10 3 -3 2 -10 -3 -16 -6
-7 -4 -18 5 -30 11 -16 16 -17 29 -6 8 7 15 9 15 5 0 -4 6 -2 14 4 11 10 16 8
21 -8 8 -25 30 -28 39 -5 3 8 2 12 -4 9 -12 -7 -12 -3 -4 20 6 14 8 14 25 -1
17 -15 19 -15 19 -2 0 9 7 18 15 22 23 9 18 25 -7 18 -14 -3 -19 -2 -14 6 4 7
14 12 22 12 20 0 18 37 -3 50 -17 11 -17 11 0 6 21 -7 22 1 2 20 -8 9 -15 22
-15 29 0 9 6 12 15 9 8 -4 15 -10 15 -15 0 -5 6 -9 14 -9 8 0 18 -5 22 -12 5
-7 3 -8 -6 -3 -15 9 -6 -9 18 -37 10 -12 13 -29 9 -52 -7 -45 25 -80 36 -38 3
11 5 9 6 -8 1 -19 3 -22 10 -10 6 8 7 19 4 25 -3 5 0 5 7 -2 11 -10 11 -15 0
-29 -16 -18 -22 -39 -21 -71 0 -13 -4 -23 -9 -23 -12 0 -14 56 -2 63 4 2 1 2
-6 0 -14 -3 -60 23 -79 44 -7 10 -13 11 -18 4 -3 -6 -1 -11 4 -11 12 0 15 -33
4 -43 -3 -4 -12 -2 -18 3 -9 8 -14 6 -19 -6 -4 -11 -2 -15 8 -11 7 3 28 -8 45
-25 17 -17 31 -26 31 -20 0 6 -12 20 -27 31 l-28 21 30 -6 c36 -8 33 -6 35
-24 5 -36 -1 -50 -21 -50 -12 0 -23 -8 -26 -20 -3 -11 -10 -20 -16 -20 -6 0
-8 -3 -5 -6 4 -3 16 0 28 6 19 10 20 10 9 -8 -7 -11 -19 -18 -26 -15 -7 3 -13
-2 -13 -11 0 -9 -4 -16 -9 -16 -5 0 -8 -11 -7 -25 3 -29 16 -46 16 -22 0 10 7
17 15 17 8 0 15 7 15 15 0 8 5 15 11 15 7 0 5 -9 -4 -24 -9 -13 -14 -34 -11
-47 4 -22 3 -22 -5 -4 -8 18 -10 18 -10 2 -1 -10 -8 -20 -17 -24 -11 -4 -12
-8 -4 -13 8 -5 7 -9 -4 -13 -9 -4 -16 -2 -16 2 0 5 -9 7 -19 4 -20 -5 -20 -5
-1 -26 11 -11 17 -23 14 -26 -3 -3 -10 2 -16 12 -8 14 -13 16 -24 6 -16 -13
-19 -34 -4 -24 5 3 7 0 4 -8 -11 -30 -74 -21 -74 10 0 16 -28 35 -40 28 -8 -5
-6 -13 6 -26 10 -11 12 -19 6 -19 -6 0 -19 11 -28 26 -11 16 -20 22 -27 15 -6
-6 -22 -1 -44 17 -32 24 -36 24 -45 9 -5 -10 -13 -15 -19 -12 -5 3 -6 0 -3 -8
2 -7 -4 -24 -14 -37 l-19 -24 0 28 c0 19 4 26 14 22 8 -4 11 -1 8 5 -4 5 -1
24 6 41 12 29 11 33 -9 46 -12 8 -22 23 -22 34 0 17 -3 18 -15 8 -18 -15 -38
-3 -32 21 4 15 0 18 -29 15 -40 -3 -63 16 -45 38 8 9 8 16 2 20 -6 4 -8 13 -5
21 4 8 -1 18 -10 21 -17 7 -22 34 -6 34 6 0 10 7 10 15 0 8 4 15 9 15 5 0 7 9
4 20 -3 11 -12 20 -19 20 -8 0 -14 5 -14 10 0 6 6 10 14 10 15 0 27 32 17 47
-3 6 -23 16 -44 23 -29 9 -38 17 -34 29 5 20 -33 27 -45 8 -5 -8 -8 -6 -8 6 0
10 -4 16 -9 12 -5 -3 -12 4 -16 15 -4 14 -15 20 -36 20 -29 0 -30 2 -24 30 6
29 -6 42 -20 20 -3 -5 -14 -9 -23 -9 -15 1 -15 2 1 6 22 6 22 20 -2 28 -10 3
-23 15 -30 28 -10 19 -10 16 -5 -18 13 -80 13 -88 2 -77 -19 19 -37 84 -29
101 5 9 5 25 0 36 -4 12 -8 14 -8 6 -1 -13 -3 -13 -13 -2 -11 11 -10 14 1 18
11 5 11 7 0 14 -8 5 -9 9 -3 9 5 0 35 -22 65 -48z m-203 -1252 c15 0 17 -7 14
-35 -3 -28 2 -42 27 -71 17 -19 28 -40 25 -46 -4 -6 -3 -8 3 -5 12 8 50 -98
59 -165 4 -26 2 -60 -4 -77 -8 -22 -7 -31 1 -34 17 -5 -10 -114 -28 -114 -8 0
-15 4 -15 9 0 4 -7 8 -15 8 -18 0 -18 -1 0 44 9 21 15 65 15 109 -1 84 -3 102
-19 140 -6 16 -8 33 -5 39 4 6 2 8 -4 4 -6 -3 -17 2 -24 12 -15 21 -39 38 -37
25 1 -4 0 -19 -4 -33 -3 -14 -8 -44 -12 -68 -5 -40 -4 -43 15 -37 23 7 24 6
10 -30 -7 -19 -6 -35 5 -60 14 -35 9 -45 -13 -23 -18 18 -16 -59 4 -119 11
-36 21 -49 35 -49 21 0 26 12 7 18 -8 3 -9 6 -1 11 6 4 19 -3 29 -15 11 -12
14 -18 7 -15 -6 4 -14 3 -18 -2 -3 -6 -13 -7 -22 -4 -12 5 -15 2 -10 -10 8
-21 -2 -21 -27 -2 -10 8 -23 12 -27 9 -5 -3 -9 0 -9 7 0 7 -6 20 -14 28 -7 9
-24 63 -36 120 -26 121 -23 216 9 300 10 28 15 51 10 51 -5 0 -9 18 -9 41 0
32 6 46 25 60 30 25 24 43 -23 63 -27 11 -31 15 -16 15 18 1 22 9 28 62 3 34
6 93 6 130 0 37 4 70 9 74 6 3 13 27 18 53 5 32 9 -27 11 -185 2 -216 4 -233
20 -233z m-497 86 c-13 -14 -20 -29 -16 -35 10 -17 23 -13 30 7 7 24 63 28 72
5 5 -14 8 -13 20 3 14 19 15 19 28 -1 8 -11 20 -26 26 -34 18 -21 20 -61 2
-68 -12 -5 -12 -7 -1 -15 10 -7 10 -11 1 -14 -7 -3 -9 -12 -6 -20 3 -8 0 -14
-5 -14 -6 0 -13 -8 -16 -18 -11 -33 -142 -57 -164 -29 -5 6 -13 23 -17 37 -4
14 -14 30 -22 35 -11 9 -12 19 -2 63 7 28 16 52 21 52 12 0 10 -13 -7 -54 -8
-20 -12 -36 -8 -36 16 0 43 83 32 96 -7 9 -4 19 13 37 13 14 27 25 32 26 5 1
-1 -10 -13 -23z m376 -277 c-2 -161 -6 -202 -18 -210 -10 -6 -10 -9 -1 -9 6 0
12 -4 12 -10 0 -5 -9 -10 -20 -10 -11 0 -20 -5 -20 -11 0 -5 4 -8 9 -4 14 8
21 -9 10 -25 -6 -11 -9 -12 -9 -2 0 7 -4 11 -8 8 -12 -7 -12 -4 -18 209 -5
212 -1 252 24 258 44 12 43 17 39 -194z m-1501 177 c3 -8 14 -16 24 -19 24 -6
41 -65 26 -89 -8 -13 -12 -14 -18 -5 -10 16 -10 4 2 -72 8 -46 8 -67 -1 -77
-9 -11 -8 -14 5 -14 12 0 7 -8 -15 -28 -29 -26 -31 -30 -18 -53 11 -20 14 -21
17 -6 2 9 7 17 10 17 4 0 18 3 32 6 24 6 25 6 5 -10 -16 -12 -17 -17 -7 -24
12 -8 12 -13 1 -31 -8 -11 -16 -21 -19 -21 -3 0 -22 17 -42 38 -42 42 -79 120
-97 205 -11 50 -11 61 3 82 11 16 12 25 5 25 -7 0 -9 8 -5 23 4 12 8 28 10 36
5 28 73 41 82 17z m1368 -91 c-4 -8 -9 -15 -13 -15 -4 0 -8 -71 -10 -157 -1
-87 -6 -222 -9 -301 l-7 -143 23 4 c25 5 24 5 16 -18 -5 -13 -8 -14 -15 -3 -6
9 -9 4 -9 -14 0 -16 -3 -28 -7 -28 -5 0 -6 -29 -5 -65 l4 -65 33 0 c18 0 41
-3 51 -7 12 -4 15 -3 10 5 -4 7 -2 12 3 12 6 0 11 -9 11 -20 0 -14 -7 -20 -22
-20 -52 0 -98 -21 -113 -50 -21 -41 -31 -38 -44 15 -7 28 -16 43 -22 39 -8 -4
-8 -1 0 13 7 15 17 19 35 16 l25 -5 -4 148 c-2 82 -4 249 -5 370 l-2 222 38
41 c43 46 46 47 38 26z m-165 -277 c0 -39 -3 -48 -9 -33 -8 18 -9 17 -9 -7 -1
-16 4 -28 9 -28 6 0 10 -12 10 -26 0 -14 -4 -23 -10 -19 -6 4 -10 -9 -11 -32
-1 -41 -16 -101 -18 -70 -2 33 -17 17 -17 -19 0 -21 2 -32 4 -25 2 6 8 11 13
11 6 0 6 -8 -1 -19 -6 -12 -17 -17 -29 -14 -16 4 -19 1 -14 -16 5 -21 23 -39
23 -24 0 4 9 19 19 32 l19 25 -5 -67 c-4 -42 -2 -67 4 -67 17 0 63 -52 63 -71
0 -11 5 -19 11 -19 8 0 7 -5 -1 -15 -11 -13 -15 -13 -21 -3 -5 7 -6 20 -3 29
2 9 -2 19 -11 23 -8 3 -15 12 -15 19 0 9 -20 18 -57 25 -93 18 -97 18 -110 2
-11 -13 -12 -13 -13 1 0 8 4 19 9 25 14 15 -23 116 -47 127 -28 13 -77 -31
-70 -61 4 -13 0 -23 -8 -26 -21 -8 -17 -37 6 -43 12 -3 20 -14 20 -27 0 -15
-3 -17 -9 -7 -11 17 -15 9 -31 -55 -12 -45 -15 -50 -36 -46 -31 6 -39 -16 -19
-54 8 -16 15 -36 15 -45 0 -9 10 -36 23 -60 12 -25 23 -50 24 -57 2 -6 24 -32
50 -58 35 -33 42 -44 28 -42 -18 3 -20 -2 -17 -49 1 -28 -2 -54 -8 -58 -5 -3
-10 2 -11 12 0 16 -1 16 -9 -2 -12 -28 -12 -37 1 -29 18 11 -6 -26 -45 -71
l-36 -40 15 44 c8 24 15 45 15 47 0 2 -12 -1 -26 -7 -15 -5 -29 -8 -31 -6 -2
3 15 12 37 21 23 9 38 21 35 27 -4 5 -1 16 5 24 10 12 9 15 -4 15 -9 0 -16 -4
-16 -10 0 -16 -41 -49 -55 -43 -15 5 -16 43 -2 43 4 0 5 5 2 10 -4 6 -11 8
-16 5 -5 -4 -9 -1 -9 4 0 6 7 11 15 11 12 0 13 4 6 18 -8 15 -4 19 25 28 19 6
34 8 34 5 0 -4 12 -7 28 -6 20 0 28 6 30 21 3 22 -23 52 -35 40 -4 -4 -1 -11
7 -16 10 -6 6 -8 -15 -6 -17 2 -40 4 -52 5 -20 1 -21 5 -16 61 6 64 -10 85
-22 30 -4 -17 -11 -28 -16 -24 -5 3 -10 0 -10 -5 -3 -26 -4 -30 -11 -37 -5 -4
-8 13 -8 38 0 25 -6 64 -14 86 -8 22 -13 42 -10 44 3 4 11 41 13 63 1 6 6 3
11 -5 5 -8 10 -50 10 -92 0 -45 4 -78 10 -78 12 0 12 142 0 255 -7 73 -4 109
7 78 3 -10 9 -10 26 0 12 7 23 12 24 12 1 0 4 12 8 28 6 21 4 27 -9 27 -9 0
-16 5 -16 11 0 6 10 9 23 7 17 -2 23 -11 28 -43 3 -22 7 -31 9 -20 1 11 2 26
1 34 -2 8 2 10 10 5 7 -4 5 3 -4 15 -8 13 -13 30 -10 37 4 11 -5 14 -35 14
-45 0 -72 -8 -72 -21 0 -5 7 -9 15 -9 8 0 15 -4 15 -10 0 -5 -5 -10 -10 -10
-6 0 -9 -3 -9 -7 4 -23 -2 -43 -11 -38 -5 3 -10 23 -10 43 0 34 5 41 64 84 41
29 79 49 107 53 49 8 112 39 102 49 -3 3 -2 6 3 6 6 0 21 19 33 43 22 39 106
127 124 127 4 0 7 -24 6 -52z m-1101 -392 c0 -14 -4 -23 -9 -20 -5 3 -9 0 -9
-5 0 -6 7 -11 15 -11 8 0 15 -4 15 -9 0 -5 -7 -11 -15 -15 -20 -7 -19 -32 3
-54 21 -21 26 -98 7 -106 -7 -2 -21 4 -31 15 -14 16 -15 24 -6 44 10 21 9 25
-3 25 -8 0 -15 -8 -16 -17 0 -11 -3 -13 -6 -5 -2 6 -11 12 -18 12 -33 0 -45
78 -25 151 7 26 20 41 42 52 30 15 32 14 44 -8 6 -12 12 -34 12 -49z m-359 7
c11 -10 26 -23 34 -29 22 -19 40 -129 27 -168 -7 -23 -8 -64 -1 -135 8 -90 7
-107 -7 -133 -18 -32 -34 -38 -41 -17 -2 8 1 9 10 3 8 -4 -1 8 -20 29 -19 20
-37 34 -41 32 -3 -2 -7 8 -8 22 -2 24 0 25 44 21 l46 -3 -7 35 c-3 19 -8 70
-11 112 -4 52 -10 75 -18 72 -17 -7 -11 69 8 98 16 24 15 25 -11 38 -26 13
-33 16 -56 19 -14 2 3 21 19 21 8 0 23 -8 33 -17z m2177 -170 c-2 -49 -10
-119 -17 -157 -10 -54 -10 -71 -1 -74 7 -2 12 -10 12 -17 0 -18 -48 -25 -61
-9 -16 20 -29 17 -23 -3 5 -14 4 -15 -4 -4 -6 8 -8 20 -5 28 3 7 0 13 -6 13
-7 0 -14 -7 -17 -15 -8 -21 -21 -19 -27 5 -3 11 -1 18 4 14 5 -3 9 10 9 29 0
19 2 47 4 63 2 16 1 23 -1 17 -2 -7 -8 -13 -12 -13 -5 0 -7 -12 -4 -27 3 -28
3 -28 -7 -4 -17 39 9 68 55 63 35 -4 36 -3 26 16 -14 26 -14 32 -1 32 6 0 10
-7 10 -15 0 -21 30 -31 41 -14 4 8 6 24 2 36 -3 14 -1 23 7 23 7 0 11 15 10
43 -2 50 -2 57 5 57 3 0 3 -39 1 -87z m-158 -745 l50 -11 -25 -38 c-14 -21
-30 -36 -36 -32 -6 3 -7 1 -3 -6 4 -6 2 -18 -4 -26 -9 -11 -30 -13 -87 -10
-41 2 -76 5 -78 7 -2 2 15 31 38 65 47 69 56 72 145 51z m-541 -1092 c0 0 3
-28 5 -60 2 -36 8 -61 16 -64 9 -3 12 14 12 63 l0 66 38 -3 37 -3 3 -67 c3
-63 1 -68 -18 -68 -34 0 -35 3 -33 62 2 31 -2 60 -7 63 -6 4 -10 -19 -10 -59
0 -64 -1 -66 -25 -66 -27 0 -27 1 -25 77 1 44 -1 52 -14 47 -12 -5 -16 -21
-16 -65 0 -33 -4 -59 -10 -59 -6 0 -10 28 -10 65 0 62 -11 84 -24 48 -6 -14
-8 -14 -21 3 -13 18 -14 18 -15 1 0 -10 9 -31 21 -46 27 -37 22 -65 -14 -69
-22 -3 -27 1 -27 17 0 12 5 21 10 21 6 0 10 -7 10 -15 0 -8 5 -15 10 -15 18 0
11 36 -10 55 -29 26 -23 67 10 75 19 5 98 2 107 -4z m-536 -23 l2 -28 4 28 c3
19 10 27 24 27 15 0 19 -7 20 -37 1 -39 3 -38 13 10 10 41 45 37 48 -5 l1 -33
4 33 c4 31 6 32 48 32 41 0 45 -2 54 -32 l9 -33 1 33 1 32 55 0 55 0 0 -55 c0
-33 4 -55 11 -55 6 0 9 -8 7 -17 -3 -14 -14 -18 -51 -19 l-47 -1 -1 46 -1 46
-10 -48 c-8 -36 -14 -47 -27 -45 -10 2 -17 15 -19 36 -2 17 -8 32 -13 32 -6 0
-7 -15 -3 -36 5 -28 4 -36 -7 -32 -7 2 -16 15 -20 29 -7 24 -7 24 -8 1 -1 -30
-27 -39 -50 -18 -15 14 -19 14 -24 3 -4 -10 -21 -13 -59 -11 l-53 2 -3 71 c-3
66 -1 71 18 71 15 0 20 -7 21 -27z m-596 -249 c4 -135 4 -248 1 -251 -3 -3
-30 13 -61 37 l-55 42 0 94 c0 52 -3 94 -7 94 -5 0 -38 -59 -75 -130 l-67
-130 70 0 c59 0 71 3 77 19 6 17 13 14 60 -28 l52 -48 -47 -33 c-27 -19 -51
-39 -55 -44 -4 -6 -8 1 -8 16 l0 28 -97 -4 -98 -3 -65 -121 -64 -122 -69 0
-68 0 39 73 c22 39 74 137 117 217 43 80 118 217 168 305 50 88 100 177 111
197 20 37 23 38 77 38 l56 0 8 -246z m-242 115 c-10 -18 -33 -38 -53 -46 -112
-44 -176 -98 -211 -178 -29 -65 -34 -124 -15 -187 13 -44 13 -60 4 -86 -7 -18
-16 -32 -19 -32 -4 0 -20 26 -36 57 -24 49 -28 70 -27 138 0 104 31 172 112
246 73 67 153 104 255 118 5 1 0 -13 -10 -30z m414 -174 c-4 -58 -4 -105 -1
-105 3 0 27 47 54 105 l49 105 55 0 55 0 -75 -157 c-42 -87 -92 -191 -111
-230 l-35 -73 -49 0 -49 0 0 88 c0 48 -3 151 -7 230 l-6 142 63 0 63 0 -6
-105z m455 55 l-16 -50 -52 0 c-49 0 -53 -2 -63 -31 -17 -48 -15 -51 34 -48
51 3 52 -1 17 -53 -20 -32 -30 -38 -59 -38 -35 0 -43 -10 -59 -75 -6 -24 -4
-25 44 -25 l49 0 -15 -45 -14 -45 -99 0 c-80 0 -101 3 -106 15 -9 24 115 407
139 428 16 14 39 17 118 17 l98 0 -16 -50z m158 -35 c0 -47 4 -85 9 -85 4 0
19 37 33 83 l24 82 51 3 51 3 -76 -231 -76 -230 -48 0 -48 0 -1 103 -1 102
-34 -102 -35 -101 -45 -4 c-53 -4 -55 -3 -44 25 5 12 39 115 75 230 l66 207
49 0 50 0 0 -85z m469 71 c10 -12 9 -28 -5 -75 l-17 -61 -52 0 c-51 0 -52 1
-47 26 4 24 2 25 -28 22 -32 -3 -33 -4 -75 -135 l-43 -133 33 0 c33 0 34 2 59
78 15 44 24 86 20 95 -5 15 2 17 55 17 34 0 61 -3 61 -7 0 -4 -21 -71 -46
-149 -42 -129 -49 -142 -73 -148 -14 -3 -43 -10 -63 -15 -37 -9 -38 -8 -32 15
6 24 5 24 -64 24 -52 0 -71 4 -75 15 -8 20 121 417 141 433 24 18 236 17 251
-2z m277 -8 c-4 -13 -9 -35 -12 -50 -6 -26 -10 -28 -59 -28 -50 0 -54 -2 -64
-31 -17 -48 -15 -51 34 -48 51 3 52 -1 17 -53 -21 -32 -30 -38 -61 -38 -33 0
-37 -3 -49 -40 -18 -58 -17 -60 37 -60 l49 0 -17 -45 -16 -45 -98 0 c-80 0
-99 3 -104 16 -9 25 115 406 139 427 16 14 39 17 115 17 94 0 95 0 89 -22z
m295 12 c10 -6 19 -19 19 -28 0 -38 -50 -168 -69 -181 -16 -10 -18 -17 -10
-33 8 -15 3 -41 -21 -112 l-31 -93 -54 -2 c-30 -1 -55 0 -55 2 0 2 14 43 30
92 17 49 30 90 30 92 0 2 -13 3 -28 3 -26 0 -30 -5 -55 -82 -36 -111 -35 -110
-94 -106 l-49 3 67 210 c37 116 70 218 72 228 5 15 19 17 117 17 61 0 120 -5
131 -10z m318 -4 c10 -12 9 -28 -5 -75 l-17 -61 -49 0 c-47 0 -48 1 -42 26 6
24 5 25 -32 22 -33 -3 -39 -7 -42 -28 -2 -20 7 -33 46 -62 90 -69 88 -65 57
-155 -39 -110 -44 -113 -181 -113 -85 0 -114 3 -114 13 0 6 8 39 18 72 l18 60
52 3 52 3 -10 -26 c-14 -36 -15 -35 29 -35 36 0 40 3 46 31 4 17 3 34 -1 38
-5 4 -35 26 -66 50 -32 24 -58 50 -58 59 0 29 42 157 58 175 13 14 33 17 122
17 81 0 110 -4 119 -14z m131 -489 c8 -7 23 -22 34 -34 18 -21 18 -23 -3 -52
-12 -16 -21 -34 -21 -39 0 -16 -44 -40 -81 -42 -61 -5 -71 -2 -64 19 3 11 1
22 -4 25 -23 15 35 100 82 120 40 18 39 18 57 3z m-2206 -46 c-90 -66 -262
-91 -382 -56 -56 17 -59 21 -38 50 12 17 17 17 62 4 69 -20 178 -16 239 9 28
11 75 20 104 21 l55 1 -40 -29z"/>
<path d="M3688 3981 c-70 -47 -127 -90 -128 -94 0 -16 52 -77 67 -77 8 0 11 5
7 12 -4 7 -3 8 4 4 7 -4 12 -15 12 -25 0 -10 8 -25 18 -35 18 -15 20 -15 37 4
13 14 21 17 26 9 4 -8 11 -4 19 10 6 13 18 20 25 17 7 -2 20 3 29 13 14 15 16
38 14 133 l-3 115 -127 -86z"/>
</g>
</svg>
